<?xml version="1.0" standalone="no"?>
<!DOCTYPE svg PUBLIC "-//W3C//DTD SVG 20010904//EN"
 "http://www.w3.org/TR/2001/REC-SVG-20010904/DTD/svg10.dtd">
<svg version="1.0" xmlns="http://www.w3.org/2000/svg"
 width="295.000000pt" height="300.000000pt" viewBox="0 0 295.000000 300.000000"
 preserveAspectRatio="xMidYMid meet">

<g transform="translate(0.000000,300.000000) scale(0.100000,-0.100000)"
fill="#000000" stroke="none">
<path d="M312 532 c-69 -25 -99 -55 -117 -116 -40 -134 14 -278 113 -306 53
-14 117 -12 159 5 59 25 66 34 40 55 -19 16 -25 16 -49 4 -15 -8 -49 -14 -77
-14 -39 0 -56 6 -80 26 -78 65 -63 247 23 288 43 20 75 20 126 0 32 -13 43
-14 55 -4 24 20 18 35 -21 53 -56 27 -112 30 -172 9z"/>
<path d="M1080 524 c-24 -14 -46 -22 -47 -17 -12 32 -21 36 -53 23 -23 -10
-29 -17 -23 -29 4 -9 10 -100 13 -204 3 -103 8 -187 13 -187 4 0 18 0 32 0
l25 0 0 170 c0 168 0 170 24 185 38 25 89 29 124 11 l32 -17 0 -164 c0 -135 3
-166 16 -179 17 -17 33 -20 49 -8 6 4 10 73 10 171 l0 164 26 19 c14 11 44 22
67 25 34 5 44 2 66 -20 26 -26 26 -27 26 -190 0 -90 2 -166 5 -169 3 -2 18 -3
35 0 l30 4 0 159 c0 175 -8 210 -54 247 -55 43 -152 36 -208 -15 -17 -15 -20
-15 -42 6 -22 21 -75 41 -106 41 -8 0 -35 -12 -60 -26z"/>
<path d="M1745 534 c-64 -20 -71 -27 -57 -58 l11 -25 47 21 c97 42 184 4 184
-83 l0 -39 -100 0 c-112 0 -145 -11 -175 -57 -23 -35 -24 -103 -2 -137 40 -61
145 -73 235 -27 50 26 52 26 52 2 0 -21 13 -28 50 -27 19 1 24 5 21 21 -2 11
-6 88 -10 172 -5 133 -9 155 -27 180 -47 63 -138 86 -229 57z m183 -281 c-3
-35 -8 -40 -57 -65 -72 -37 -122 -37 -151 -1 -15 19 -19 35 -15 53 10 42 31
50 133 50 l93 0 -3 -37z"/>
<path d="M2215 541 c-74 -19 -105 -54 -105 -119 0 -58 35 -94 115 -116 123
-34 130 -38 133 -78 4 -48 -24 -68 -94 -68 -39 0 -61 6 -89 26 -32 22 -42 24
-62 15 -31 -14 -26 -27 21 -65 36 -29 43 -31 124 -31 69 0 93 4 115 19 37 25
57 66 57 116 0 60 -35 89 -148 123 -99 29 -122 49 -102 87 23 43 104 53 159
19 31 -19 34 -19 52 -3 26 23 25 27 -20 52 -44 25 -111 35 -156 23z"/>
<path d="M2621 540 c-71 -17 -118 -75 -107 -134 10 -51 51 -82 141 -106 44
-12 88 -29 98 -38 23 -21 22 -57 -4 -83 -31 -31 -137 -24 -174 11 -21 20 -28
22 -50 12 -32 -15 -31 -22 3 -55 74 -71 244 -60 292 18 22 35 26 95 10 126
-14 24 -58 47 -138 70 -77 22 -112 43 -112 68 0 52 97 77 164 42 37 -19 41
-20 58 -4 17 15 17 18 2 34 -18 20 -97 50 -128 48 -12 -1 -36 -5 -55 -9z"/>
<path d="M615 360 c-3 -6 -3 -19 0 -30 6 -18 15 -20 121 -20 l114 0 0 30 0 30
-114 0 c-67 0 -117 -4 -121 -10z"/>
</g>
</svg>
